<?xml version="1.0" encoding="UTF-8" standalone="no"?>
<!-- Created with Inkscape (http://www.inkscape.org/) -->

<svg
   xmlns:dc="http://purl.org/dc/elements/1.1/"
   xmlns:cc="http://creativecommons.org/ns#"
   xmlns:rdf="http://www.w3.org/1999/02/22-rdf-syntax-ns#"
   xmlns:svg="http://www.w3.org/2000/svg"
   xmlns="http://www.w3.org/2000/svg"
   xmlns:sodipodi="http://sodipodi.sourceforge.net/DTD/sodipodi-0.dtd"
   xmlns:inkscape="http://www.inkscape.org/namespaces/inkscape"
   width="100"
   height="100"
   id="svg4384"
   version="1.1"
   inkscape:version="0.48.2 r9819"
   sodipodi:docname="redo.svg">
  <defs
     id="defs4386" />
  <sodipodi:namedview
     id="base"
     pagecolor="#ffffff"
     bordercolor="#666666"
     borderopacity="1.0"
     inkscape:pageopacity="0.0"
     inkscape:pageshadow="2"
     inkscape:zoom="5.6568542"
     inkscape:cx="35.177435"
     inkscape:cy="47.69564"
     inkscape:document-units="px"
     inkscape:current-layer="layer1"
     showgrid="false"
     inkscape:window-width="1440"
     inkscape:window-height="852"
     inkscape:window-x="0"
     inkscape:window-y="0"
     inkscape:window-maximized="0" />
  <metadata
     id="metadata4389">
    <rdf:RDF>
      <cc:Work
         rdf:about="">
        <dc:format>image/svg+xml</dc:format>
        <dc:type
           rdf:resource="http://purl.org/dc/dcmitype/StillImage" />
        <dc:title></dc:title>
      </cc:Work>
    </rdf:RDF>
  </metadata>
  <g
     inkscape:label="Layer 1"
     inkscape:groupmode="layer"
     id="layer1"
     transform="translate(0,-952.36218)">
    <g
       id="g5020"
       transform="matrix(-1,0,0,1,99.552295,6.5306446)"
       style="fill:#ffffff;fill-opacity:1;stroke:#ffffff;stroke-opacity:1">
      <path
         inkscape:connector-curvature="0"
         id="path4422"
         d="M 43.616901,962.88489 43.438329,993.06346 15.090576,976.69688 z"
         style="fill:#ffffff;fill-opacity:1;stroke:#ffffff;stroke-width:1px;stroke-linecap:butt;stroke-linejoin:miter;stroke-opacity:1" />
      <path
         inkscape:connector-curvature="0"
         id="path4948"
         d="m 38.569218,980.75101 0,-9.10715 0,0.53572"
         style="fill:#ffffff;stroke:#ffffff;stroke-width:1px;stroke-linecap:butt;stroke-linejoin:miter;stroke-opacity:1;fill-opacity:1" />
      <path
         inkscape:connector-curvature="0"
         id="path4983"
         d="m 73.84219,1029.2746 c -0.0025,-0.059 0.345405,-0.4868 0.773168,-0.9505 3.172486,-3.4388 5.515325,-8.02 6.522721,-12.7542 0.329285,-1.5474 0.350379,-1.8353 0.348062,-4.7518 -0.0023,-2.8853 -0.02654,-3.2176 -0.343605,-4.7074 -0.776271,-3.6475 -2.14895,-6.74692 -4.349996,-9.82203 C 70.171144,987.0378 57.075417,981.3096 41.156687,980.70116 l -2.119673,-0.0809 0,-4.11707 0,-4.11709 1.929852,0.0866 c 14.674998,0.65871 26.783042,5.22916 34.587011,13.05566 0.839546,0.84197 1.914424,2.01553 2.388617,2.60792 7.779365,9.71846 8.72036,22.41542 2.45697,33.15192 -1.29769,2.2246 -3.03246,4.4871 -4.933501,6.4349 -0.890556,0.9124 -1.621253,1.6106 -1.623773,1.5516 z"
         style="fill:#ffffff;fill-opacity:1;fill-rule:nonzero;stroke:#ffffff;stroke-opacity:1" />
    </g>
  </g>
</svg>
